/* XPM */
static char *fdb8da05805144d19cdc5a094603eb7aXA3A7FvJzvVtUn7d[] = {
/* columns rows colors chars-per-pixel */
"64 64 69 1 ",
"  c black",
". c #0F141E",
"X c #041E19",
"o c #161919",
"O c #232828",
"+ c #373737",
"@ c #7F1819",
"# c #0A4036",
"$ c #465E2E",
"% c #384040",
"& c #385054",
"* c #3E517F",
"= c #784040",
"- c #687740",
"; c #82181A",
": c #991D1E",
"> c #D5382B",
", c #7CAE00",
"< c #79B600",
"1 c #76BC00",
"2 c #7ABC00",
"3 c #74C400",
"4 c #7AC500",
"5 c #7CC900",
"6 c #55AC5A",
"7 c #9B861B",
"8 c #82BD00",
"9 c #8EBE00",
"0 c #C89838",
"q c #84C300",
"w c #81C400",
"e c #80C600",
"r c #84C700",
"t c #89C100",
"y c #8FC300",
"u c #89C600",
"i c #81C800",
"p c #85CA00",
"a c #83CC00",
"s c #83CD00",
"d c #86CE00",
"f c #87CE00",
"g c #88C800",
"h c #8EC900",
"j c #88CE00",
"k c #8CCF00",
"l c #91CA00",
"z c #93CD00",
"x c #90CE00",
"c c #8DD000",
"v c #8FD200",
"b c #91D000",
"n c #95D100",
"m c #95D400",
"M c #99D300",
"N c #99D400",
"B c #9AD500",
"V c #9CD500",
"C c #A0D700",
"Z c #D8A078",
"A c #002682",
"S c #0058B3",
"D c #828599",
"F c gray62",
"G c #9E9EA8",
"H c #F8D0B8",
"J c #89B3DD",
"K c #A8A0C8",
"L c #E8E8F8",
/* pixels */
"9y3au1355553ca54555a33333333355adp33333333554555i55b431543333555",
"yy552333335555535555333333333455u433333333455355455cinN133333333",
"33555ip3335355535433333333335555xu34333333335333455555kc13333333",
"3355442233333534333333a3a333333333in35j3333333334335555p33333333",
"33555553333333333333353af533333333a45p<3333335533335555433333333",
"333355h533333313333515555a3333333355i2gj53333i433333531333333333",
"13333iw133311<<13455555c34433333345555apq333335333333333333u4r3b",
"4k41132333333331343355da4a133333335543<2235d4453333333333354p15r",
"5qw133333333333333555544d2111<121135555433xh534331<<<<<233535555",
"3431<<<1<13555533345ab34w43111<21344i55j33kba55331<<<<<333333444",
"3w43112111335555333333548333333333555gnx331r43433331335135j4a333",
"ig13333333335addc333333331333343335ac11433333153333533pq3545p335",
"334433453555554421333333h1wq4aw4333uV33333333<Ni333cu45455ik4345",
"p355534554d55d423333333ij45w55c13333833331w448d33333p45455543335",
"355d545551ri45x413333335553535iid3333333334xc4553333535433pg3333",
"3d5j5445d31qp18433333335533355i533333331hjw4cd543333441333333333",
"3wp55w5id1331xpkk33c33333333w43331<<<33gNa555i531<<<<<<<<<<11333",
"34ppp13bw3333wd5aw5fa3f3313a511333111133ia555531<<<<<<<<<<113333",
"321w<338133333dd55355am334154<44p8<<<<<gma4555333333312545355554",
"53333333331333ii554545453k444:::::::<<1335433333331<<9p554555dkm",
"53533aap<<<<<3ii453535334lc::>>>:>>>::133333333331<<<<88j55345xr",
"a55455u2<<<<<12331113533aN;>>>>>;>>>>>;33333535a41<<<<<yd541545g",
"3dj1i55j2<<<<8j31p5p33333i >LLLLFLLLL> 1334555jpj3<<<<<241<25513",
"34g<2khgx<<<<fj44a5f53333 >LLLLLFLLLLL> 1555555jn33<,,,<<132w333",
"5431<188<dw<4w5455j5i3333 >LLLLL$$LLLL> 35dxi4ph832<,<<345554334",
"45332<2jp5iw355345d533333 LLLLL$FLLLLLL 35d4kjw3333333354pi35455",
"i3333455i555455335553334  LLLL$$$$$LLLL  jl23313333gh3333hw54j55",
"33334g4d555543433333334 &  >>LLLFLLL>>  & <33333313iig3333q43331",
"33333555f3333311111131u  Z >>>>>>>>>>> Z  3342333Vhw5553333ww433",
"54333333555332<<<<<133p3 Z=%=>>>>>>>=%=Z 555px533k5i4433332w43cp",
"54333333333333313333335w O=Z%K%  =%K%Z=O 355pN533354543331wp3i55",
"445333333333333w5333334w oOZZL HHH LZZOO 34344312834555333p4cj54",
"lh431111113333wu53333333r  =ZHHHHHHHZ=  33533333mjiw55533314i554",
"33331111<133334555553333333 =ZHHZHHZ= 3333c33333332d455333idd453",
"3333333443333331a543333333 L6 =ZZZ= 6L+53333333333g4wb33333d4i43",
"3333553555333334455433333 ZL6SSXXX#S6LZ+354353333121113wd4333333",
"335555355d5553333q533333-6Z* 7S###S7 *Z6-5535533<<,<<<1pi5453333",
"33c5435bbd4dijb33aa3333u 66  AS.#.SA  66 555c5p3<<<<<23cd5433333",
"333c43j3533di533334341p1w   *00@D@00*   q55gcnj31311333333w53333",
"35g333333333333335pi45h5uhg G*JJJJJ*G 33q4pju443335533435353335c",
"5g<133333333333335555555r8u LL     LL 3333w4334433r55354533333j5",
"w4dcd3333333333333333443433<  <<<<<  5555333334543j554a5gc333355",
"5548<333333335333dwp3333pw3311<11113335d55431rd33rp553p333333355",
"5413333333k335q455du33555333333334355555dpp334333415333331313335",
"w55j3333335d355555w3355r33335533554555w525134g45553433331<<<1353",
"5pbj3333333555444dh333333335ad535551p54dp1133u5r5r55333331333355",
"f311333333353333333333333355aai4a5p31pr2q533331j15q33133354333ic",
"n31111<1<333333333353333331dpii2i5p3342npcp34c333334c1wu55uw3334",
"133<2<<<133334w5535555i3333w1j234p23333555545d4an335454535pwi433",
"3333111111133p555555jjV33351333331333333d555553d5335443355w54333",
"333333321<<<5i5p55345Nw33353534ap4333333c53454453333333453333333",
"33333i33333333wc553525c335555455j43111<2343333343333313p53333333",
"335554pN133331p553153143cm3a5355j533132<3338123333333a1i3355c233",
"33555ag433112333332w5333553cd3d5ic33332cp38d4c3333333ca45455w543",
"5a5555cV1<<,<233331p33333335533m1kq233r5p3iaa5533333abb55554w5g5",
"55b54fc433312331p553335433333334q24p23w5j15d555333333i5555455p33",
"554bg3333333311pw554355443333311pk35j1w55455d5333333333311133333",
"5c234w1333333<<<hi44d5wp3333333515d55i455335553333333331<<133333",
"nl23311111213<<<9w4<t2843333331155555545533353333333333313333333",
"423331<<<1<<11<<<22<<<213333335cgj54533333333333333111133<<,1333",
"3333333331133311<<<<133113333a355553333333331n133311<<1333133aw3",
"33333333333113333333333333333d3355553333334w4j4p13333333h85c4cq5",
"33333333id43353i35d33333333345333333333333Nxxi3a1333333i5xjj54iq",
"b434i35cdcm35bmi4j5a33333333445ad33333333d5bb555w3cml335453555ij"
};
