/* XPM */
static char *a36d15ffbecd45cdc5b97a10ed8291ce02C0hLavV9PQUitY[] = {
/* columns rows colors chars-per-pixel */
"64 64 245 2 ",
"   c #3A3C04",
".  c #4A320B",
"X  c #5D330F",
"o  c #54380D",
"O  c #5B3715",
"+  c #673913",
"@  c #653A12",
"#  c #693A12",
"$  c #6C3C13",
"%  c #3A4A03",
"&  c #235401",
"*  c #2C5402",
"=  c #265B01",
"-  c #2A5E01",
";  c #355803",
":  c #2C6401",
">  c #2E6A01",
",  c #2D630A",
"<  c #326602",
"1  c #326C01",
"2  c #356909",
"3  c #2F7500",
"4  c #347401",
"5  c #397502",
"6  c #347B01",
"7  c #3A7C01",
"8  c #39780B",
"9  c #366A16",
"0  c #3C7715",
"q  c #3B6C20",
"w  c #49580A",
"e  c #54590C",
"r  c #504F11",
"t  c #625F0F",
"y  c #6D4315",
"u  c #694812",
"i  c #6C431C",
"p  c #734315",
"a  c #73461A",
"s  c #784918",
"d  c #7B4A1A",
"f  c #665913",
"g  c #78581A",
"h  c #437D0A",
"j  c #4D6411",
"k  c #467B15",
"l  c #6B6F13",
"z  c #786919",
"x  c #595E2A",
"c  c #6D4E24",
"v  c #526A23",
"b  c #437723",
"n  c #6F7022",
"m  c #824E1A",
"M  c #84521D",
"N  c #8A561D",
"B  c #88771B",
"V  c #8C5B22",
"C  c #885824",
"Z  c #925D21",
"A  c #856629",
"S  c #956224",
"D  c #996324",
"F  c #9C6926",
"G  c #99692B",
"H  c #A36E2C",
"J  c #A8742C",
"K  c #A47433",
"L  c #348301",
"P  c #3C8401",
"I  c #368B00",
"U  c #3C8B01",
"Y  c #3C840B",
"T  c #3F8A0D",
"R  c #379101",
"E  c #3C9301",
"W  c #3E9B02",
"Q  c #3F960A",
"!  c #3C8515",
"~  c #418602",
"^  c #428C02",
"/  c #4B8801",
"(  c #41830C",
")  c #448B0B",
"_  c #558A0B",
"`  c #439301",
"'  c #489503",
"]  c #439B01",
"[  c #4A9C01",
"{  c #449409",
"}  c #4B960B",
"|  c #449B0B",
" . c #559B06",
".. c #448413",
"X. c #458C12",
"o. c #4B8D15",
"O. c #498B1A",
"+. c #479516",
"@. c #53991A",
"#. c #669E0D",
"$. c #44A302",
"%. c #4BA401",
"&. c #4DAB01",
"*. c #46A40D",
"=. c #4BA60B",
"-. c #52A403",
";. c #52AC01",
":. c #53A40C",
">. c #54AB0D",
",. c #4EB101",
"<. c #4DB00C",
"1. c #54B401",
"2. c #5AB501",
"3. c #55BA02",
"4. c #5ABD01",
"5. c #58B70B",
"6. c #5BBC09",
"7. c #48A314",
"8. c #4AAC14",
"9. c #4CAD19",
"0. c #58A417",
"q. c #4CB118",
"w. c #57B819",
"e. c #68AA03",
"r. c #7CAB0F",
"t. c #69B806",
"y. c #78B600",
"u. c #76BD00",
"i. c #7ABC00",
"p. c #76B90A",
"a. c #67AB15",
"s. c #6BB716",
"d. c #76BA15",
"f. c #4C8924",
"g. c #578E2D",
"h. c #449B26",
"j. c #589827",
"k. c #479A35",
"l. c #7B912D",
"z. c #49A527",
"x. c #5AA428",
"c. c #54B827",
"v. c #53AB37",
"b. c #55B738",
"n. c #65A924",
"m. c #69BD26",
"M. c #77BB23",
"N. c #5CC403",
"B. c #5DC807",
"V. c #5DC418",
"C. c #61C601",
"Z. c #63CC03",
"A. c #6ACE03",
"S. c #62CA0B",
"D. c #74C400",
"F. c #7AC500",
"G. c #7CC900",
"H. c #75C30A",
"J. c #66D304",
"K. c #6AD506",
"L. c #6CDC05",
"P. c #71DB08",
"I. c #63CD19",
"U. c #74C319",
"Y. c #69D515",
"T. c #73DE13",
"R. c #6EE007",
"E. c #74E709",
"W. c #75E814",
"Q. c #5DC829",
"!. c #5CC73B",
"~. c #61CD29",
"^. c #77CB24",
"/. c #67D426",
"(. c #61CD3B",
"). c #78C63B",
"_. c #69D838",
"`. c #76EB27",
"'. c #75E735",
"]. c #4C9F45",
"[. c #4DA843",
"{. c #54B64B",
"}. c #59AE59",
"|. c #58B55A",
" X c #70B854",
".X c #5DB264",
"XX c #65B672",
"oX c #5AC547",
"OX c #5DCD53",
"+X c #5CC55A",
"@X c #5FD050",
"#X c #65D249",
"$X c #6BCE51",
"%X c #78C958",
"&X c #71E446",
"*X c #65C96A",
"=X c #77C866",
"-X c #6BD865",
";X c #6AC674",
":X c #6FCF7A",
">X c #71D478",
",X c #77EB6B",
"<X c #7BE879",
"1X c #82BE00",
"2X c #8EBE00",
"3X c #8CA61C",
"4X c #85B413",
"5X c #89952E",
"6X c #8DAE35",
"7X c #83C500",
"8X c #8CC500",
"9X c #83CB00",
"0X c #8BCD00",
"qX c #94C600",
"wX c #92CD00",
"eX c #8ED000",
"rX c #92D200",
"tX c #99D500",
"yX c #9ED800",
"uX c #91CC11",
"iX c #83CC34",
"pX c #A68D41",
"aX c #9CB04B",
"sX c #81CA54",
"dX c #83CD6F",
"fX c #6FBA84",
"gX c #6CC185",
"hX c #79CD88",
"jX c #77D388",
"kX c #76CA99",
"lX c #7CD294",
"zX c #7EDB93",
"xX c #7DE489",
"cX c #7EE090",
"vX c #7BCEA1",
"bX c #7CD2A2",
"nX c #85D88D",
"mX c #81D59B",
"MX c #82E594",
"NX c #83D8A7",
"BX c #87DDB4",
"VX c #8DEAB6",
"CX c #8BE4BA",
"ZX c #8EE6C9",
"AX c #90EAC5",
/* pixels */
"2X8XD.9X8Xu.D.G.G.G.G.D.eX9XG.G.9XG.G.9XD.D.D.D.D.D.D.D.$XsXdXsXiX0Xu.D.D.D.D.D.D.D.G.G.G.G.G.G.7XG.G.eXi.D.D.G.D.D.D.D.D.G.G.G.",
"8XqXF.G.i.D.D.D.D.D.G.G.G.G.G.D.G.G.D.G.D.D.D.F.D.$XnXBXAXAXAXAXZXBXlX=X^.D.D.D.D.D.D.G.G.D.G.9XD.G.G.0X9XrXtXi.D.D.D.D.D.D.D.D.",
"D.D.G.G.G.9X9XD.D.D.D.D.G.G.G.D.G.D.D.D.D.A.D.d. XNXBXBXAXVXVXVXAXAXAXBXmX=XD.D.D.D.D.D.G.D.D.D.D.G.9XD.G.G.0XrXu.D.D.D.D.D.D.D.",
"D.D.F.G.F.G.y.u.D.D.D.D.D.G.D.D.D.D.D.D.D.G.^.{.*XjXxXMX,X,X,X,X<XMXVXVXBXNX=XD.D.D.D.D.D.D.D.D.G.G.D.G.G.G.G.9XD.D.D.D.D.D.D.D.",
"D.D.G.G.G.G.9XD.D.D.D.D.D.D.D.D.D.D.D.D.F.M.v.v.b.#X_.'.`.`.`.`.`.'.&X,XzXNXmX%XD.D.D.D.D.G.G.D.D.D.D.G.G.G.G.i.D.D.D.D.D.D.D.D.",
"D.D.D.F.G.G.8XF.D.D.D.D.D.D.u.D.D.D.D.G.d.b.x.c.w.I.P.E.E.E.E.E.W.W.`.`.#X,XlXhX^.D.D.D.D.9XF.D.D.D.D.D.G.G.D.D.D.D.D.D.D.D.D.D.",
"u.D.D.D.D.G.7Xu.D.D.D.u.u.y.y.u.D.F.G.H.n.x.0.>.4.Z.L.R.E.E.E.E.R.E.R.T.T./.$X;X%XD.D.D.D.F.F.D.D.D.D.D.D.D.D.D.D.D.D.8XF.7XD.rX",
"G.0XF.y.D.D.i.D.D.D.D.D.D.D.D.u.D.F.D.M.n.x.>.;.3.B.J.L.R.R.R.R.R.R.L.L.K.Y.I.!. XD.9X9XF.D.F.F.D.A.D.u.D.u.D.u.D.D.G.G.9Xi.G.7X",
"G.7X7Xu.D.D.D.D.D.D.D.D.D.D.D.D.D.D.H.n.x.0.-.1.,.N.N.B.J.J.L.J.J.J.J.J.J.J.B.V.b.D.uX=XfXkXNXlX%Xd.y.y.y.y.y.y.D.D.G.G.D.G.G.G.",
"D.F.D.u.u.y.y.y.y.y.D.D.G.G.G.D.D.D.s.x.@.0.-.&.,.N.N.N.Z.Z.Z.B.Z.B.Z.B.C.B.N.5.7.s.}.fXkXNXBXBXBXlX Xy.y.y.u.D.D.D.D.D.D.G.G.D.",
"D.7XF.u.u.y.i.u.u.D.D.D.G.9XG.G.G.D.n.j.0.-.%.%.$.,.N.N.N.N.N.N.N.N.N.N.4.4.3.1.} k..XXXXX>X>XMXmXMXlX%Xu.D.G.D.D.D.eXD.9XD.D.D.",
"9X9XD.D.D.D.D.D.D.D.D.D.t.5.t.H.eXD.x.x.0. .[ $.$.,.,.,.,.,.3.3.,.N.,.,.;.1.1.&.+.k.].k.~./.'.'.&X-X-X:X).D.9X7XD.G.D.9X0XD.D.G.",
"u.D.F.F.D.D.G.G.D.D.6.8.9.9.9.9.>.a.x.j.@.[ ] ] $.$.$.&.&.&.,.,.,.,.,.,.&.&.%.[ O.f.O.| N.P.P.T./._.#X#X%XG.G.7XG.G.G.0Xi.D.G.G.",
"9XD.G.G.G.D.D.G.G.5.9.q.9.9.9.9.7.7.@.0. .[ ] ` W W $.$.$.$.$.&.$.$.$.$.%.%.%.' ! f.T [ 6.J.K.P.P.T.I.~.{.d.G.F.G.G.7XF.D.D.D.F.",
"D.G.G.9XG.D.F.G.H.8.8.q.q.8.8.8.8.*.| @.} [ E ` ` ` W W W W Q Q $.W W W ] ] ] ~ k ..U [ 2.C.D.Z.K.K.S.I.c.~.G.D.D.D.9X0XD.D.D.D.",
"D.9XG.eXG.F.G.G.=.*.$.8.8.<.*.*.$.$.| | } { ` ` U E ` U +.z.[.{.{.|.[.h.{ U ^ ~ 8 ( ( ' ;.2.4.4.C.C.C.t.<.s.i.D.D.D.D.D.D.D.D.D.",
"D.9X9XG.G.7XG.D.Q Q Q Q *.*.$.$.$.$.$.W E { U ^ ^ ^ { z.v.{.+X*X*X;X;X|.{.k.T 7 8 ( ~ '  .-.;.1.1.2.4.1.*.e.y.y.y.y.y.u.u.D.D.D.",
"D.F.0X9X9Xy.u.p.T R R Q W $.$.$.W W W R R Q ^ ~ ) { 7.c.!.@X@XOXOX+X+X+X|.{.z.X.7 8 7 ~ ' ' [ %.-.;.1.;.E y.y.y.u.y.y.u.D.D.D.D.",
"D.u.u.i.u.D.U. X.X.X|.[.h.R W W W W W R E E T ~ ' :.w.Q.~.~.(.~.(.(.!.b.!.{.b.h.( 7 P ~ ^ ' ' ' ] %.%.] -.u.d.$X%XG.D.G.G.G.G.G.",
"G.D.D.D.D.%XlXlXjXjXjX*X+X{.z.R R R R R I I ( { } >.w.I.Y.Y.Y.V.I.Q.Q.V.Q.w.c.z.+.~ 7 ~ ^ / ^ ` ` ' ] P / O.[.kXBXCXnXG.G.9X8XtX",
"G.D.G.D.=XbXbXlXjXjX:X*X*X+XoXv.Q R R R I Y T { :.5.C.J.J.J.A.J.Z.B.B.B.4.5.5.>.7.) 7 P ~ ~ ~ ^ ^ U P 4 3 ! v.;XMXNXCXNXG.F.rX7X",
"9XG.G.%XbXvXjX*X@X@X@X@X@XOXoXoXb.7.R I I Y ( } :.6.C.A.Z.Z.Z.Z.B.N.N.4.4.2.1.;.-.[ U P ~ ~ ~ ~ P 7 3 4 6 Q x.#X$X-XcXVXnX7XF.9X",
"D.9XG.jXgX+X!.~.~./.~.~.~.!.!.oXoXc.7.R I Y X.@.:.5.6.N.C.C.C.C.N.N.4.2.1.1.;.&.%.[ ^ 7 P P ~ 7 7 4 4 6 7 { 5.I.`._.#X>XBXG.u.D.",
"D.G.).|.[.c.V.B.B.B.J.B.B.I.Q.Q.!.c.9.| E ( o.@.:.>.2.2.4.4.4.4.4.2.1.;.;.%.%.%.[ ] ^ P 7 7 7 7 4 4 6 4 P ' 2.A.P.Y./.(.jX%XD.D.",
"G.D.^.k.h.q.N.B.B.N.N.B.B.N.B.6.w.w.q.8.` Y o.@.@.-.%.;.1.1.1.1.1.;.&.%.%.%.' ] ` E E L P 7 7 7 7 5 4 6 P ' 3.Z.A.A.B.Q.OX=XD.G.",
"D.G.w.h.+.8.5.3.3.3.3.3.3.3.5.5.3.5.5.=.] U o.o.o.} [ [ %.%.-.&.%.[ %.' ' ' ] ` E E I L I 7 7 7 4 6 6 4 P ] 3.N.Z.B.N.N.b.%XG.G.",
"0XD.a.+.+.*.=.1.,.,.&.,.&.;.;.;.;.;.&.&.[ E ~ X.o.) } } ' | ] ' ' ' ' ` ^ ` ^ U I I L L 7 7 7 6 4 6 6 6 I ] ,.N.N.3.,.<.c.).G.7X",
"D.D.s.o.X.| %.%.%.%.%.$.%.[ %.[ %.[ [ [ [ ` P ( ( o.) ( ) ~ ~ P U P U P U P P U L L L E I P 7 6 4 4 4 4 I E $.,.,.$.=.*.9.m.D.u.",
"D.D.d.+.X.{ { ] | ] ] ' ' ` ' ' { ^ ` ` ` ` U P h ( k 8 h 7 5 6 7 7 7 L 7 7 L 7 3 L $.W ] U P 4 4 6 4 6 L R Q W $.W W Q h.U.D.D.",
"G.F.D.0.X.) ` { ^ ` ^ ` ` ` ^ ~ ^ ^ U U U U ^ P 7 5 8 8 8 5 ; 1 4 4 4 3 4 4 3 3 I W $.W ] E U 4 4 4 3 6 L R R R R Y I Y ! D.0X9X",
"G.G.D.s.o.X.) ^ ^ ^ ^ ` ^ ^ ~ ~ ~ P P P P I U U 7 1 1 1 , % . : > > > > > : > L E ] $.$.W ` I 7 4 4 4 4 3 L L L 6 L 6 ! a.9XG.G.",
"D.F.G.H.0.o.X.) ) { ^ ) ) ^ ^ ~ P P 7 L L U I ~ 7 1 : : : w . - : : % : > 4 6 7 I W W W ] E Y 6 4 3 4 4 3 8 3 3 3 8 ! @.eX9XG.G.",
"qXqXD.D.s.@.O.o.o.o.o.o._ ) ( h 7 6 P ] %.` ^ 7 4 1 > : : w r : : : . > 4 4 4 6 P U E ` E U P 6 4 8 8 8 0 k ..f.f.f.j.p.G.G.G.G.",
"G.D.D.D.u.a.+.X.o.@.o.o.X.( ~ 7 7 E ] ] [ ^ 7 : ; : < < : g w > > 1 r 1 4 4 4 4 1 1 7 P U U L 4 4 4 8 k f.g.g.g.g.a.F.9X9XF.G.u.",
"D.D.D.D.D.D.t.P ( O.X...( 8 Y E $.] ` ' ^ 6 : % o : 1 < t a : : > : g 2 1 1 < : & * % 1 6 7 4 4 8 5 4 8 ..a.0.a.t.D.D.9XD.9XF.D.",
"D.D.D.D.G.G.t.Y L I Y Y U ] $.$.$.` U P 4 - & % + t 1 j s j : : : : f f 1 < < < w o ; : : 1 4 7 4 4 4 5 8 u.F.G.9XG.D.G.D.D.D.D.",
"D.D.D.G.9XG.D.7 6 L L R R E W ` ` U 7 4 - &   ; u N g m + 2 : = : - w g < < 2 $ s 2 < ; : < 4 6 5 5 5 5 8 y.D.8X9XF.G.D.D.D.D.D.",
"D.D.eXG.F.D.F.' 6 6 3 3 3 L I P P 7 4 - & % % < e m N + + 9 : : = - = s ; 1 u z 5 1 < < : < 1 6 4 5 5 4 0 F.D.eX9XG.G.G.D.D.D.D.",
"D.D.D.eXF.D.0X;.3 8 9 3 : : > > < > w e w p ; < j s S M + j : : - - = g f u g 5 5 1 < : : : > 4 1 5 1 4 +.D.D.D.D.D.9XD.D.D.D.D.",
"D.G.0XD.D.D.D.H.T 8 , , - = = = = * r N Z p - < k y M F i j : : : - : N F N j 5 1 1 < : - : > > 5 1 1 4 @.D.G.D.G.D.G.D.D.D.G.eX",
"G.0Xy.D.D.D.D.D.u.4 , = & & & & & & * o # u - h i.c s F $ j : : : : , G J m 9 ; 2 2 : : : : > 3 > > : 8 s.F.G.F.9XD.D.D.D.D.9XG.",
"G.F.9X0X0XD.D.D.D.t.4 - = - = & & & & &   + _ D.F.n p D O r = - : > e D M i 9 2 , , , : = : : : : : > ! H.D.9XF.8X9XD.D.D.D.G.G.",
"G.F.F.1Xy.D.D.D.D.D.i./ 2 1 1 ; : - - h %.f z F.7Xn s V O r & = ; e s S O x b k 9 , , , : : : : : > 8 x.G.D.9XD.D.D.D.D.D.D.G.G.",
"F.F.i.D.D.D.D.D.D.D.9XF.t./ / /  .e.7X0XG.#.p r.G.n M M O . O # s C D a O v b b b q 9 9 9 , : : 4 0 j.F.D.D.D.D.D.D.u.i.D.D.D.G.",
"G.G.G.9XD.D.D.D.D.D.G.0XD.G.G.G.G.G.7XD.G.D.+ z D.l C s + m Z J J F d i x 9 f.a.n.g.g.f.k 8 5 h O.0.H.F.D.D.D.D.u.y.y.y.D.D.F.G.",
"G.7XrXeXD.D.D.D.D.D.D.G.F.G.G.D.G.9X8XD.D.D.l s p.a N s V H J H V p c v k #.p.9X9Xi.d.s.s.a.a.s.s.9XG.G.D.D.D.D.D.u.D.D.D.D.F.G.",
"9XD.u.u.D.D.D.D.D.D.D.G.D.D.D.D.D.D.D.D.D.D.e.$ N s m m Z Z C a i l.p.p.p.7X9Xi.8XF.D.D.u.D.u.0Xi.G.7XD.D.u.D.u.D.F.F.D.D.D.9X0X",
"tXF.u.u.u.u.y.y.y.D.D.D.D.D.D.D.D.D.D.G.D.D.D.# m Z $ m m $ + c 5XG.8XD.D.D.1XrX9X0X0XD.F.eXD.D.D.D.D.F.0Xi.9X0XG.G.8XF.D.D.D.F.",
"D.D.u.y.u.y.y.y.y.D.D.D.D.F.G.G.G.D.G.G.G.G.G.z S F O a a # c l.F.0Xu.D.D.D.D.9X9XG.9XD.G.9XG.9XrXD.D.G.G.G.D.G.G.G.9X7X9XD.D.D.",
"D.D.D.D.u.u.u.u.u.u.u.u.F.9XG.F.D.G.G.G.eX0XyXB F G + $ y i l.D.u.u.D.D.D.D.D.D.9XG.G.G.G.G.D.9XG.D.D.G.F.D.D.D.G.G.G.G.F.u.D.D.",
"D.D.D.D.D.D.D.u.u.y.y.u.G.9X9X9XG.G.F.D.G.tX7XM F S p + y a d.G.9XD.D.D.D.D.D.D.eXG.G.D.D.G.G.G.D.D.D.D.D.D.D.D.G.u.D.D.D.D.D.D.",
"D.D.D.D.D.G.D.D.D.D.D.D.D.D.7X0XG.G.D.G.i.G.0Xs F Z p y s A G.G.0XF.D.u.u.u.y.y.D.D.D.D.D.D.D.D.D.D.D.D.D.D.D.9XG.u.D.D.D.D.D.D.",
"D.D.G.G.G.G.9XtXF.D.D.D.D.u.9XG.G.D.u.G.D.y.F.a S Z s $ N 5XG.G.9XG.D.D.D.u.u.i.D.D.D.1Xi.i.D.D.D.D.D.D.D.9Xi.7XD.u.G.G.eXi.D.D.",
"D.D.G.G.G.9X8XF.D.D.u.y.y.D.D.D.D.D.i.9XG.u.d.p N D d s C 6X9XG.9XeXD.D.D.D.i.0X9XD.7X0XF.0Xu.D.D.D.D.D.D.eX9XF.G.D.G.9X7X9XF.D.",
"G.G.G.G.G.G.eXyXi.y.y.y.y.u.D.D.D.D.i.9XD.D.r.p N D s d C aXi.rXF.rX7Xi.D.D.7X9X9XD.7X9X9X9XG.D.D.D.D.D.9XrXrXG.G.G.G.G.9XG.9XF.",
"G.G.rXG.F.9X0X7XD.D.D.u.y.D.D.u.9XG.G.D.D.D.5Xp M D m s G M.t.D.7Xy.F.9Xi.D.7XG.9Xu.G.9XG.G.G.D.D.D.D.D.D.G.G.G.G.D.D.G.G.7XD.D.",
"G.G.F.rX0XD.D.D.D.D.D.D.D.u.i.9X7XG.G.G.D.F.V s M Z C d C 4Xi.i.9X0XG.G.9XF.F.9XG.D.G.G.9XG.D.D.D.D.D.D.D.D.D.D.F.y.D.D.D.D.D.D.",
"G.wXy.D.F.7Xu.D.D.D.D.D.D.y.y.y.qX7XD.G.9X3Xs m m Z D c s d.D.F.y.G.9XG.G.G.u.G.G.D.G.G.G.G.D.D.D.D.D.D.D.D.D.u.y.y.u.D.D.D.D.D.",
"rXqXu.D.D.u.u.u.u.u.u.u.u.y.y.y.1X7XG.y.4XN d m s V G d i 5Xi.i.G.F.G.G.G.G.F.G.G.D.D.D.G.D.D.D.D.D.D.D.D.D.D.D.F.D.u.u.D.D.D.D.",
"F.u.D.D.D.u.y.y.y.y.y.y.D.u.y.y.y.7Xy.r.N M m p $ M G G $ C 6X0X9X0XG.F.G.D.D.D.D.D.D.D.D.D.D.D.D.D.u.u.u.u.u.D.D.y.y.y.u.D.D.D.",
"D.D.D.D.D.D.D.D.u.D.D.D.D.D.u.y.y.y.y.B Z m d $ $ m Z K m + C pXiXG.9XD.D.D.D.D.D.D.D.D.u.rXu.D.D.D.D.y.y.y.D.D.D.u.D.D.D.9X7XD.",
"D.D.D.D.D.D.D.D.D.D.u.u.u.D.D.D.D.F.4XZ N $ $ $ $ $ C K G $ + d pXaXG.F.D.D.D.D.D.D.D.9XF.0XF.9Xu.D.D.D.D.D.D.D.0X1X9X0XF.0X7X7X",
"D.D.D.D.D.D.D.D.9X9XG.D.D.D.D.9XD.4XJ Z $ $ $ $ + + + Z K V X X $ K aXD.D.D.D.D.D.D.tX0XwX9XD.9Xu.D.D.D.D.D.D.9XG.8XeX9XG.G.9X1X",
"0XF.D.G.G.D.G.rX9XeXrXD.9XrXeX7X3XJ F $ # # O + + + + $ Z D s + O $ K 6XD.D.D.D.D.9XG.rXwXG.G.G.7XD.eXtX8XD.D.G.G.G.D.G.D.G.9X9X"
};
