/* XPM */
static char *_987106d339f44739e4d7aaab9b7c4d9bsjB7QtL25Ju0DCs[] = {
/* columns rows colors chars-per-pixel */
"64 64 54 1 ",
"  c #101010",
". c #831010",
"X c #FF5220",
"o c #EE4131",
"O c #D53141",
"+ c #7CAE00",
"@ c #79B600",
"# c #76BC00",
"$ c #7ABC00",
"% c #74C400",
"& c #7AC500",
"* c #7CC900",
"= c #81BC00",
"- c #82BD00",
"; c #87BF00",
": c #8EBE00",
"> c #81C300",
", c #84C300",
"< c #81C400",
"1 c #85C400",
"2 c #89C100",
"3 c #8FC300",
"4 c #8AC600",
"5 c #80CA00",
"6 c #86CB00",
"7 c #83CC00",
"8 c #86CE00",
"9 c #87CE00",
"0 c #88CB00",
"q c #8DC800",
"w c #88CD00",
"e c #88CF00",
"r c #8CCD00",
"t c #94C600",
"y c #91CA00",
"u c #94CB00",
"i c #90CE00",
"p c #93CE00",
"a c #8DD000",
"s c #8FD200",
"d c #90D200",
"f c #92D200",
"g c #94D300",
"h c #95D400",
"j c #99D300",
"k c #9AD500",
"l c #9ED800",
"z c #9FD900",
"x c #A0D700",
"c c #FF835A",
"v c #B4ACBD",
"b c #FFAC9C",
"n c #DED5D5",
"m c white",
/* pixels */
":3%74#&*&**%e8*****8%%%%%%%%%***8r#%%%%%%%**&***<**a*%#*&%%%%***",
"33**$%%%%%*&***%**&*%%%%%%%%%&**4&%%%%%%%%***%**&**e5gj$%%%%%%%%",
"%%***56%%%&&***%*&%%%%%%%%%%**&*f4%&%%%%%%%%*%%%**8%**ea#%%%%%%%",
"%%**&&$#%%%%%*%%%%%%%%*&8%%%%%%%%%5p%*e%%%%%%%%%%*%****>%%%%%%%%",
"%%*****%%%%%%%%%%%%%#*%58*%%%%%%%%5&*6@%%%%%%**%%%%&***&%%%%%%%%",
"%%%%**q>%%%%%%%%%%%*&*****%%%%%%%&**6&66*%%%%**%%%%%**#%%%%%%%%%",
"#%%%%5>%%%%###@@%&****5f%&&%%%%%%%****&0,%%%%&&%%%%%%%%%%%%4%,%f",
"&r&##%$%%%%%%%%#%&%%&*e5&8#%%%%%%%**&%$@$%**&&*&%%%%%%#%%%**e#*,",
"*,,#%%%%%%%%%%%%%%****&*e=##@#@$$#%****&%%iq*%%%%#@@@@@#%%*&&***",
"%&%##@@@@@%&***%%%%*8a%%>&%%#@###%*%5**e%%ai8**%%#@@@@@#%%%%&%*&",
"%<$%#@#$#%%%****&%%%%%&*=%%%%%%%%%**&ehi%%#1*%%%%%%#%%*%%&8%6%%%",
"50%%%%%%%%%&*7888%%%%%%%%%%%%%#%%%57a##=%%%%%#<%%%%*%%81%***6%%*",
"%%&&%%&*&*****&&#%%%%%%%q$>,*5>*%%%1x%%%%%%%%@k5%%%r4%*>***r&%&&",
"6%***%%**&5**8&$%%%%%%%76&*>*&r$%%%%=%%%%#<&%;r%%%%%6&*&**5&%%%*",
"%**e*&***#55&<i&#%%%%%%*&*%*&**68%%%%%%%%%&ie&**%%%%*%*&%%*q%%%%",
"%5*e*&**8%#,e$$&%%%%%%%**&%%***>#%%%%%%%qa*&re*&%%%%&&#%%%%%%%%%",
"%66**&*>e#%%#i6eq%%a%%%%%%%%<&%%%#@@##%6l8***5*%#@@@@@#@@@@##%%%",
"%&6,6$%f>#%%%5e*55&88%8%%$%7&#%%#%####%#58****%#@@@@@@@@@@@#%%%%",
"%#$&$%%=#%%%%%65**&**8h%%*$*&@&*5$@@@@@6f8&&**%%%%%%##$5*%%***5*",
"*%%%%%%%%%%%%%55**&*&*%*%0&&%%**u@@@@@#%%*%%%%%%%%#@@;8******5rj",
"*%*%%564@@@@@%*5&&%*%*%%&ye&*%*8>11$@##%%%%%%%%%%#@@@$==0**%*&i,",
"8**%**e$@@@@@@$%%%##%*%%5ge6***%*54@@#%%%%%%*%*6*#@@@@@2e*&$***e",
"%5e$>**e$@@@@,q%#6<6%%%%%8****....@@####%%&***60e%#@@@@$##$$**#%",
"%&0@$i04q@@@@e6&&6*e*%%%%%%.ooXXXXoO @###******eg#%++++@$#%#>%%%",
"*&%#@$;=@e>@*5****e*5%%%%%OXXXXXXXXXX.%%%**f**0q=%#++@@%&***%%%*",
"*&%%#$$e6&5>#**&&*8*%%%%%OXXXXXXXXXXXXO%%*8&r0&%%%%%%%%*&,******",
"6%%%%#&&6***&**%%&**%%%&OXXXXXXXXXXXXXX.%8y#%%&#%%%q4%%%%q,*&q*>",
"%%%%%q58****%%*%%%%%%%%.XcbbcXXXXXXXXXXX q$%%%%%%#%550%%%%<%%%%#",
"%%%%%***5%%%%%######%#,oXcbbcXXXXXXXXXXXO%%%<$%%%xq<***%%%%&<&%%",
"*%%%%%%&***%%#@@#@##%%*oXXccXXXXXXXXXXXoO***6i*%%r*7&&%%%%>>&%e8",
"**%%%%%%%%%%%%%##%%%%#.XXXXXXXXXXXX.XXXOO.%*8j5%%%&*&&%%%#=8&5**",
"%**%%%%%%%%%%%%>*%%%%%.XXXXoccXXXOOoXXXOO.&%&&%#$$&%***%%%6&e6**",
"yq&%######%%%%<1*%%%%%.XXXXOXcXXvnnXXXoOc.*%%%%%h8*****%%%#&****",
"&%%%###$@#%%%%%*****%%.XooX.XX..mmnXXXOOv.a%%%%%%%$6&5*%%%588&*#",
"%%%%%%%%&%%%%%%#7*&&%%%OOOXo.onvmmnXXoOvv%%%%%%%%%0&&i%%%%%8&5%%",
"%%%%**%***%*%%%&&***%%%cmnOXoocbbbXXovvvv&&%*&%%%##$$%#*1&%&%%%%",
"%%****%**8&**%%%%,*&%%%.ooXXXXXXXXocvvvv **%**%%@@@+@@&4,**%%%%%",
"%%r*&%*fa7*858i&%57%%%%1vnoXXXXXcnvvvvvvr**6a55%@+@@@$%re***%%%%",
"%%%e&%8%*%%e8*%%%%%%&%6#&vmmmmmnnvvvvvv%,*&6rj8%%%##%%%%%%5%%%%%",
"%*0%%%%%%%%%%%%%%*15=*q&q4vvvvvvvvvvvv%%,#ee4&&%%%&*%%&%*%*%%%*f",
"*0@%%%%%%%%%%%%%%**&****,=0 vvvvvvvv %%%%%>*%%*&%%,**&*&*%%%%%7&",
"*>er0%%%%%%%%%%%%%%%&%*%&&%@@@....@@#****%%%%%&&&%r**%e&0a%%%&**",
"*&*=@%%%%%%%%*%%&8*6%%%%,&%%##@#$##%%%*e**&%#0*&%,5**%0%%%%%%&**",
"&&#%%%%%%%e%%*,&**64%%***%%%%%%%%%%&****e1,%%&%%%%#*%%%%%###%%%*",
"***e%%%%%%*a%******%%&5<%%%%**%%**%5**5*&&#%%0**8*%*%%%%#@@@%%&%",
"*,fr%%%%%%%&&*&&&6r%%%%%%%%*58*%***#6*&e6##%%4*1*>**%%%%%%%%%%**",
"e%##%%%%%%%&&%%%%%%%%%%%%%**85*&7*5%#41$,&%%%%$8#*<%%#%%%&>%%%*e",
"j%%###@@#%%%%%%%%%%&&%%%%%#e055#6*4%%%&i6r8%&r%%%%%<r#54**,>%%%*",
"#%#@@@@#@%%%%&<**%*****%%%%,$e=%&q#%%%%*8**%**&6f%%***%***8>5%%%",
"%%%%######%#&5******eex%%%*#%%%%%#%%%%%%5*****&8*%%**%%%%**5&#%%",
"%%%%%%%##@@#*5<6**%&*j,%%%*%*%&56%%%%%%%a*&%**&*%%%%%%%%5#%%%%%%",
"%%%%%*%%%%%%%%>a**%*$*e%%****&**e&%###@#%%%%%%&%%%%%%#%8*#%%&%%%",
"%%*5*&6k&%%%%#1*&%#*%#*%8h%8*%**e*%%%##=&%#$#$%%%%%%%*$5*#**a$%%",
"%%****4&%%#@#%%%%%$5*%%%**%a8%8*60%%%%#i6%&a*a#%%%%%%a5&*%**1*&%",
"******rx$@@@@#%%%%#5%%%%%%%**%&f&r,$%%<56%5655*%%%%%8rg*****5*e*",
"**f**ea&%%%###%&6*5%%%&&&%%%%%%%,$&6$%<*6#*6***%%%%%%7***%%**,%%",
"**&fq%%%%%%%%##6>***%**&&%%%%%##,e%*0&>**%**e*%%%%%%%%%%##%%%%%%",
"*i@%&<#%%%%%%@@@t5&&6*>6%%%%%%%*$*e***&**%****%%%%%%%%%#@@#%%%%%",
"gt#%%%######%@@@,>&@;$=&%%%%%%$$*&****%**%%%&%%%%%%%%%%%&%##%%%%",
"&#%%%#@@@@@@##@@@=$@@@$#%%%%%%*r0e*&&&%%%%%%%%%%%%%####%%@@@#%%%",
"%%%%%%%%%##%%%#@@@@@##%%#%%%%*%****%%%%%%%%%#g$%%%##@##%%%#%%6,%",
"%%%%%%%%%%%##%%%%%%%%%%%%%%%%e%%****%%%%%%&5&0&5#%%%%%%%0,*e&e,>",
"%%%%%%%%5e&%%*%8%*8%%%%%%%%%%5%%%%%%%%%%%%kip*%e#%%%#%%5*yre*&7>",
"r&%*5%*r8ah%*fa*%a*7%%%%%%%%*&&88%%%%%%%%5*gi***>%rgy%%5&*%*&*5e"
};
