/* XPM */
static char *e51b3b68aed94ff9c2e1e795e564a07faBGIoz9gKhsAbccT[] = {
/* columns rows colors chars-per-pixel */
"64 64 32 1 ",
"  c black",
". c gray16",
"X c #623108",
"o c #41414A",
"O c #C52018",
"+ c #9C5200",
"@ c #E65A41",
"# c #7CAE00",
"$ c #79B600",
"% c #76BC00",
"& c #7ABC00",
"* c #74C400",
"= c #7AC500",
"- c #7CC900",
"; c #83BD00",
": c #8EBE00",
"> c #DE9400",
", c #F6BD20",
"< c #83C400",
"1 c #8BC500",
"2 c #83CB00",
"3 c #8BCC00",
"4 c #94C600",
"5 c #92CD00",
"6 c #8ED000",
"7 c #92D200",
"8 c #9AD500",
"9 c #9ED800",
"0 c #A0D700",
"q c #F6E652",
"w c #737383",
"e c #FFF6A4",
/* pixels */
":1*21%*-=--*62--2--2*********--223%*******------<--6&**-=****---",
"14--&****=-----*--*-*********-*21=*********--*-2*--3278%********",
"**---22*****---*-***********--*253%=********-***--2*--37%*******",
"**=-==&%*****-********2-2*********27*-3**********-*----2********",
"**----<**************-*22-********2*-2$******--*****--2%********",
"***=--3=***********-&---*2*******=---=23-****2=*****--**********",
"%****-<****%$%$$*=-----6*==*******-2--23<*****-************1=<*5",
"-3&&*%&********%*-**=-32*6********--**$$%*22==-*******%***--2&-<",
"-<<%**************-----=3;%%$%$&&%*=--****53-=***$$$$$$%**-*----",
"*=*%$%$$$%%----****-26**<=**%$%%**-*2-23**372--**%$$$$$********-",
"*<=%%%%&%***-2---*****--;%********--=355**=<=*********-%*-2=3***",
"22%********-*2222*************%***226%%=*****%-****=**2<*---3**-",
"%*=-**=-=-------&%******1%<<=2<-***19********$92***61*-<--23%=*-",
"2*---**-=*2-22=&*******22=-2--6%****<****&--%;2-****3=-=---=***-",
"*--2-=--2%22=-5*%******---*-*-<22*********=53=-*****=*-=**23****",
"*2-3-=--2*%<2$;-*******-=***---=***%%***13<=62--****==*%********",
"*22--<-<2%**&5333**6********<****%$$$**192---2-*%$$$$$$$$$$%%***",
"*-322&*6<****22--2*62*  *%*2-%****%%%&**222---*%$$$$$$$$$$%%****",
"*%%&&**&%*****22--*--2.. -%2=$%-2;$$$$$27-*---******%%%<--*-2---",
"-*********%***2-----* ..X3===*-24$$$$$$**-********%$$12--*---238",
"-*-*=221$$$$$*-2===-* o,+33--*-2<<<&...**********%$$$$;;3--*=-7<",
"2=-=--2&$$$$$&%***%%- ,,>83----==+,qooo.****-*-2-%$$$$$12-=%-&=3",
"*22%2--3&$$$$;3*%2<<= ,,>2-@@>*>,qqqoo.%***---223*$$$$$&=%&&--%*",
"*-3$&3313$$$$32=<2-22*+,>qeeeqqqqqqwo.%%%-2+---37**$###$$%*&-***",
"--*%$$<;$2<$=2----3-2**>qeeeeqqqqq,  ****-,q>=33=*%##$$*=---***-",
"*-**%$&22-2<%--**-2-**++qqqqqeXqq+*=-****,qqq3<*******%-=<-=-=--",
"2***%=--2---=--**---**XeqqqqqXoqq+=<2-**,qqqq>*%***21****3<-=3-<",
"****=3<2-----*********XXqqqqqqq,,,X*2->qqqqqq>**%&%223****<=***%",
"*****---2*****%%%%%%*Xqqq+>,qqq@@, **>qqqqqqqq+**93<---****<<=**",
"-=******---**$$$$%$%*X@,,,,,,,,OO, %%,qqqqqqqq+**3-2--****=<**32",
"=-*************%*****X>,,,,,,,,>>, $>,,qqqqqq+-**==-=****%;2=22-",
"*--************<-*****-,,,,,,,,,,,X+,,,,,,q+==*%&&=*---***2*62-=",
"45**%%%%%%****<<-******,,,,,,,,,,,q*+,,,>+ *****732----***%=----",
"****%%%&$%****=-2---***qq,,,,,,,,qq--+,>**6*******&2=--***222=-%",
"********=*****=%2*-****qqqq,,,,qqqq---+,X*********3=<7*****2*2=*",
"****--*---=*****---***+qqqqqq,qqqqq+-+,,>-*=-****%$%%%*=<=*-****",
"**----*--2---****<2***+qq>qqqqqqqqq++>>>X--*--**$$$#$$=1<--*****",
"**6-=*-762-2227**22***Xqq,qq>qqq>qq++>X*5---6-2*$$$$$&*32---****",
"***6-*6*-**22-******=*+,qq,q+qq>qq,, X+*<--2683*=*%*******2*****",
"*=3**************=<2<+qq>,qqq>>qqq,, X+X;=231*=*%*==**=*-*-***-7",
"-3$%*************--=->qqqqqqqqqq,,,,+X ***<=%*=***2--=-=2*****2<",
"2&233****************>,,qqqqqq,q,,,,>----*****=-=*3--*2-32****--",
"-*-;%********2**=3-3*+,,,,,,,,,,,,,,X*22---**3-=*<2=-*3*******--",
"===*******3=**<---21**+,,,>+++,,,,,+----2<2*%=***=%-*****%*%***-",
"2--2******-3*-----<**++>++ *--.++>+---2-&-%*=1----=*****%$$$**-*",
"-<76*******-=--*=25**+X+***-22-*X,>+3-=22%%*%3-<-<2-*****%****--",
"2*%%********=*************--22-=2  *%12&1-*****3%-<**%****<***<3",
"8*%%%%$$&**********-******%222-&2-<***&7232**6*****-3%<3--2<***=",
"%**$%$$$%****=---*-----****<=3;*=3%****22--=-2-25**---*-=-2<-=**",
"****%%%%%%%*=2-==---639***-%****%%******2-----*2-**--***--<-=***",
"*******%%$$$-2<2--*=-8<***-*-**22*******6-**----********2*******",
"*****-********<6--*-%-3**-------2-*%$%&%*************%*2=%******",
"**----28%****%<--*%-*%=*28*--*--3****%%$=*%;=&*******-%2*=--3&**",
"**---21=**%%%*****&-=***--*62*2-26****%52*=3=6%******72=-*-2<2=*",
"------60%$$$$%****%2*******22**8=31%**222%222--*****277----*2-3=",
"--7-=23<**%%%*%=2-2***-=********<&=3&*<-2%-2---******----**--<**",
"2--73********%=<2---*=-=******%%<3*-2=---*-22--*********&%******",
"-3$*=<%******$$$1<==2-<2*******-%-3--2%--**---*********%$$%*****",
"74%**%%%%%%%*$$$;<=%1$;;******=&-=----=--***************=*%%****",
"=%***%$$$$$$%%$$$;&$$$&*******-633-*-=*************%%%%**$$$%***",
"**********%***%%$$$$%**%%****-*---2**********8%***%%$&%******2<*",
"**********%%%*****%**********2**---*******-<&2<2%*******3;-3=3<<",
"********22-****2*-2*********-2************875-*2%***%**2-566-*2;",
"3=*--*-6337*2772=6-2*********--22********--77-*-<*681**-=-*-*-23"
};
