/* XPM */
static char *_fc38bac31b047fcf6306ca89afceee5vIhQgcd8q6UNmztj[] = {
/* columns rows colors chars-per-pixel */
"64 64 20 1 ",
"  c #7CAE00",
". c #79B600",
"X c #76BC00",
"o c #7ABC00",
"O c #74C400",
"+ c #7AC500",
"@ c #7CC900",
"# c #82BD00",
"$ c #8EBE00",
"% c #83C500",
"& c #8BC500",
"* c #83CB00",
"= c #8BCC00",
"- c #94C600",
"; c #92CD00",
": c #8ED000",
"> c #92D200",
", c #9AD400",
"< c #9ED800",
"1 c #A0D700",
/* pixels */
"$&O*&XO@+@@O:*@@*@@*OOOOOOOO@O@*==XOOOOOOO@@@@@@%@@:oOO@OOOOO@@@",
"&-@@oOOOO+@@@@@O@@O@OOOOOOOOOO@*&OOOOOOOOOO@@O@*O@@=@,,oOOOOOOOO",
"OO@@@**OOOOO@@@O@OOOOOOOOOOO@@@@;%O@OOOOOOOO@OOO@@*O@@=:oOOOOOOO",
"OO+@++oXOOOOO@OOOOOOO@@O*OOOOOOOOO*;O@=OOOOOOOOOO@O@@@@*OOOOOOOO",
"OO@@@@*OOOOOOOOOOOOOX@O**@OOOOOOOO*+@*.OOOOOO@@OOOOO@@*oOOOOOOOO",
"OOO+@@&+OOOOOOXOOOO@+@@@@*OOOOOOOO@@*+=*@OOOO*+OOOOO@@OOOOOOOOOO",
"XOOOO@%OOOOX.X.XO+@+@@@:O%+OOOOOOO@@@@@&%OOOOO@OOOOOOOOOOOO%O%O>",
"@=ooOXoOOOOOOOOXO@OO+@=*O*OOOOOOOO@@+O.ooO@*++@OOOOOOOOXOO@@=o@%",
"@%%XOOOOOOOOOOOOOO@@@@+@=oXX.X.XoXO+@@OOOO;=@+OOO......XOO@@O@@@",
"O+OX.o..XXO@@@@OOOO@*>OO%+OOX.XXOO@O*@*=OO=>*@@OOX.....OOOOOO@@O",
"O%+XXXoXXOOO@@@@OOOOOO@@#OOOOOOOOO@@@=>;OOo%+OOOOOXOOO@oO@=O*OOO",
"**XOOOOOXOOO@*===OOOOOOOOXOOOOoOOO@==OooOOOOOX@OOOO@OO*%O@O*=OO@",
"OO+OOOO@O@@@@@++.OOOOOOO=o%%+*%@OOO%<OOOOOOOO.,*OOO:&+@+@@@=oO@@",
"*O@@@OO@@+@@@=+oOOOOOOO**+@%@@:oOOOO%OOOOo*+O#=@OOOO*@@+@@@+OOO@",
"O@@=@@@@*X*@+%=+XOOOOOO@@@O@O@%*=OOOOOOOOO+;=+@OOOOO+O@+OO*=XOOO",
"O*@=@+%@*OX%=oo@OOOOOOO@@OOO@@@@OOOXXOOO==%+=*@@OOOO++XOOOOOOOOO",
"O*=@@%+*=XOOo;*==OO:OOOOOOOO%OOOOX..XXO&>*@@@*@OXX........X.OOOO",
"O+*%*oO=%OOOO@=@*@O:*O:OOXO*+oXOXOXXXXOO*=*@@@OOX..........XXOOO",
"OXo+oOO#XOOOOO**@@O@@*>OO@o@+.O@*o.....*>*O@@@OOOOOXOXo@@@O@@@@@",
"@OOOOOOOOOXOOO**@@O@@@O@O=+O@O@@;.....XOO@OOOOOOOXXX.$*+@O@@@==,",
"@O@OO**&.....O@*@+O@O@OO@;:@@O@*%%%...XOOOOOOOOOOX...o##=@@O@+>%",
"=+@O@@=o.....XXOOOXXO@OO*,=@@@@@@*&..XOOOOOOOO@=@X.....&*@+X@++=",
"O**o*@@=o....#:OX**%OOOOO*@@@@O@@%..XXXXOOO@@@**=OX....o+Xoo@+XO",
"O@=.o==%=....=*O%***@OOOOOOOOOOOOXOOXXXXX@@*@@*=>XO    ..XOo@OOO",
"@OOo.o#oo*#o+*@%+@=@*OOOOOOOOOOOOOO+OOOOO@@>*+=&#OX.  .O+@@@OOO@",
"O@OOX.o=*@*%o@@O+@*@+OOOOOOO@>+++@+@+OOOO@*+:=@OOOOXOOO@+%@+@O@@",
"*OOOo+@@*@@@+@@OO@@@OOO+=@OO+@@@+*@+=@OOO=;XOOOXOOO==OOOO=%@+=@%",
"OOOOO=%*@+@@OO@OOOOOOOO%@OOX:@@OO=@O@@OOO=.OOOOOOXO%*=OOOO%+OOOo",
"OOOOO@@@*+OOOOXXOXXXXX*@OOO@*%*OO+OOOOOOOOOO@oOOO,=%@@@OOOO+%+OO",
"@+OOOOOO@@OOOX....XXOO%OOO+OOOOOOOXXOXOOO@@@*>+OO=@*O+OOOO+%+O=*",
"@@OOOOOOOOOOOOOXOOOOOO@%@@@++@@OOXX.XXOOOO++*,*OOO@+++OOOX#=O@@@",
"O@@OOOOOOOOOOOO%@OOOOO+%+=+=o=OOOOOXOOOOOO+O+@OX.#O+@@@OOO*+:=@@",
"-;OOXXXXXoOOOO%%@@OOOOOO%OOOOOOOOOO+OOOOOO*OOOOO>=*@@@@OOOoO*@@@",
"OOOOXoXX.XOOOO+@@@@OOOOOOOOOOXXXX@@@@OOOOO:OOOOOOOo*+@@OOO@=*+@X",
"OOOOOOOO@OOOOOOo*@O@OOOOOOOO. ..o**@@OO@OOOOOOOOOX=+@;OOOOO*+*OO",
"OOOO@@O@@@OOOOO@O@@OOOOOOOOOOooO@*=@@=*@O+OO@OOOOXoXoOX+%+O@OOOO",
"OO@@@@@@@=O@OOOOO%*OOOOOOOOOOOOOO%=**=@@*@@O@@OO.. ...+&%@@OOOOO",
"OO:@+O@::*@**:>OO=*OOOX=*=@@OOO@@OOX,>*O=@@*:@*O.....oO==@@@OOOO",
"OOO:+O:O@OO**OOOOOOOOO%o%%@@@==%*@OO%OOO%+@=:,=OOXOXOOOOOO*OOOOO",
"O@*OOOOOOOOOOOOOO@%%%+=@=&*=o=+%@OOOOOOO%O==%X+OOO+@OO+OOO@OOO@:",
"@&.XOOOOOOOOOOOOO@@@@@@@%#=OXXXXXX.XXOOOOO%@OO++OO*@@O@+*OOOOO=@",
"%+*==OOOOOOOOOOOOOOOO++O+OO.........X@@@OOOOOX+@+O=@@O=+=*OOOO@@",
"@O@#XOOOOOOOO@OOO=@*OOOO%%OOXX.XXXXOOO@=*@@OO=@OO%*+@O*OOOOOOO@@",
"@++OOOOOOO=+O@%@@@=&OO@@@OOOOOOOOOO+@@@@*%*OO+OOO+O%OOOOOOXoOOO@",
"@@@=OOOOOO@=O@@@@@%OOO*%OOOO@@OO@@O@@@*@o@XOO=@@@@+OOOOOX...OO+O",
"@%::OOOOOOO@+@@OO==OOOOOOOO@@=@O@@+o=@O=*XXOO%@%@%%@OOOOOOOOOO@@",
"*OXXOXOOOOOO@OOOOOOOOOOOOO@@**@+=@*Oo%*X%+OOOOo=X@%OOXOOOO%OOO*=",
",OXXXX.X.OOOOOOOOOO@OOOOOOO*=*@X*@%OOOo,*;=O+:OOOOO@=o*&@@%%OOO+",
"OOX.X...XOOOO+%@@O@@@@@OOOO%o=oO+=XOOOO@*@*O@*O=>OO@@@O@@@*%*OOO",
"OOOOXXXXXXXXO*@@@@@@*=1OOO@oOOOOOXOOOOOO*@@@@@@*@OO@@OOO+@@@+XOO",
"OOOOOOOXX..X+***@@+O@,%OOO@O@O@**+OOOOOO:@@OO@O@OOOOOOOO*OOOOOOO",
"OOOOO*OOOOOOOO%=@+O@+@=O@O@@@@@@=+XXXX.oOOOOOO@OOOOOOXO*+XOOOOOO",
"OO@*@O=>+OOOOX%@+OX@OX@O=>O*@O@@=@OOOXXoOOXoooOOOOOOO@o@O+@@=oOO",
"OO@@@*&+OOX.XOOOOOo*@OOO*OO:*O*@@:OOOOo==O+:O:XOOOOOO>*+@O@@&@+O",
"@*@@@@*1X....XOOOOo*OOOOOOO@*O@>o=%XOO%**O**@*@OOOOO*,:@@@@@*@=+",
"@@:@@=>+OOOXXXO+*@@OOO+@OOOOOOOO%o+=oX@**X@**@@OOOOOO@@@@OO@@%OO",
"@@+>=OOOOOOOOXo*%@@@O@@OOOOOOOXX*=O@=++@@O@@*@OOOOOOOOOOooOOOOOO",
"@=.O+%XOOOOOO...&%O@*@#=OOOOOOO@o@=@@@+@@O@@@@OOOOOOOOOX..XOOOOO",
">;XOOXXXXXXXO...$%@.&.#+OOOOOOXo@+@@@@++@OOO@OOOOOOOOOOOOOoXOOOO",
"@oOOOX......XX...oX...oXOOOOOO@:*=@+@OOOOOOOOOOOOOOXXXXOO...XOOO",
"OOOOOOOOXOOOOOX.....XXOOXOOOO@O@@@@OOOOOOOOOO>XOOOXX.oXOOXOOO*%O",
"OOOOOOOOOOXXXOOOOOOOOOOOOOOOO=OO@@@@OOOOOOO*o=+*XOOOOOOO=#@=+=%%",
"OOOOOOOO*=@OOOO*O@=OOOOOOOOOO*OOOOOOOOOOOO,=;*O=oOOOXOO*@;:=@+*%",
";+O+@O@:*:>O*>>@O:@*OOOOOOOO@@@**OOOOOOOO*@>>@O@%O:>=OO@+@O@O@**"
};
